<svg xmlns="http://www.w3.org/2000/svg" width="1200" height="360" viewBox="0 0 1200 360" role="img" aria-labelledby="title desc">
  <title id="title">WeChat Agent Kit</title><desc id="desc">A local-first toolkit for WeChat article search, reading, and feeds.</desc>
  <defs>
    <linearGradient id="bg" x1="0" x2="1" y1="0" y2="1"><stop stop-color="#f3fff7"/><stop offset="1" stop-color="#edf6ff"/></linearGradient>
    <linearGradient id="mark" x1="0" x2="1" y1="0" y2="1"><stop stop-color="#07c160"/><stop offset="1" stop-color="#00a8ff"/></linearGradient>
    <filter id="shadow" x="-30%" y="-30%" width="160%" height="160%"><feDropShadow dx="0" dy="14" stdDeviation="16" flood-color="#0b3b2b" flood-opacity=".16"/></filter>
  </defs>
  <rect width="1200" height="360" rx="32" fill="url(#bg)"/>
  <g opacity=".4" fill="none" stroke="#94d7b3"><path d="M0 70h245M955 292h245"/><circle cx="1080" cy="88" r="42"/><circle cx="1080" cy="88" r="68"/></g>
  <g transform="translate(110 74)" filter="url(#shadow)">
    <rect width="212" height="212" rx="52" fill="url(#mark)"/>
    <path d="M52 88c0-28 25-51 57-51s57 23 57 51-25 51-57 51c-8 0-16-1-23-4l-25 13 7-25c-10-9-16-21-16-35Z" fill="#fff"/>
    <path d="M102 126c6-23 28-40 54-40 31 0 56 22 56 49 0 13-6 25-16 34l7 23-24-12c-7 3-15 4-23 4-27 0-50-17-55-41" fill="#fff" opacity=".93"/>
    <circle cx="89" cy="86" r="5" fill="#07af59"/><circle cx="128" cy="86" r="5" fill="#07af59"/>
  </g>
  <g font-family="Inter,ui-sans-serif,system-ui,-apple-system,BlinkMacSystemFont,'Segoe UI',sans-serif" fill="#10231a">
    <text x="378" y="144" font-size="58" font-weight="760" letter-spacing="-2">WeChat Agent Kit</text>
    <text x="381" y="196" font-size="24" fill="#486159">Search · Read · Subscribe</text>
    <g transform="translate(381 230)" font-size="17" font-weight="650"><rect width="168" height="42" rx="21" fill="#d9f8e7"/><text x="22" y="27" fill="#087b42">Agent Skills</text><rect x="180" width="136" height="42" rx="21" fill="#dceeff"/><text x="202" y="27" fill="#1268a5">JSON CLI</text><rect x="328" width="158" height="42" rx="21" fill="#e9e3ff"/><text x="350" y="27" fill="#5943a8">Local-first</text></g>
  </g>
</svg>
